<svg width="40" height="40" viewBox="0 0 40 40" fill="none" xmlns="http://www.w3.org/2000/svg">
    <path d="M20 12.9014C21.0141 13.9155 21.0141 16.9578 20 17.9718C18.9859 16.9578 18.9859 13.9155 20 12.9014Z" fill="#E093D9"/>
    <path d="M20.4226 12.4786C20.7747 12.8307 21.0029 13.3178 21.1449 13.8148C21.2892 14.3199 21.3581 14.8832 21.3581 15.4367C21.3581 15.9902 21.2893 16.5536 21.1449 17.0587C21.0029 17.5556 20.7746 18.0424 20.4226 18.3944L19.9998 18.8168L19.5775 18.3944C19.2255 18.0424 18.9972 17.5556 18.8551 17.0587C18.7108 16.5536 18.642 15.9902 18.642 15.4367C18.642 14.8832 18.7108 14.3199 18.8551 13.8148C18.9972 13.3178 19.2254 12.8307 19.5775 12.4786L19.9998 12.0563L20.4226 12.4786ZM19.9998 14.1585C19.8935 14.5374 19.8369 14.9824 19.8369 15.4367C19.8369 15.8908 19.8936 16.3354 19.9998 16.7141C20.1061 16.3354 20.1628 15.8909 20.1628 15.4367C20.1628 14.9823 20.1062 14.5374 19.9998 14.1585Z" fill="black"/>
    <path d="M20.4454 13.1858L20.5003 13.3017C20.7637 13.8958 20.8781 14.688 20.8781 15.4367C20.8781 16.1852 20.7636 16.9773 20.5003 17.5713L20.4454 17.6876L20.0001 18.5785L19.5545 17.6876C19.2523 17.0832 19.1218 16.2352 19.1217 15.4367C19.1217 14.6382 19.2523 13.7902 19.5545 13.1858L20.0001 12.2949L20.4454 13.1858Z" fill="#E093D9" fill-opacity="0.92"/>
    <path d="M25.0195 14.9805C25.0195 16.4147 22.8683 18.5659 21.4341 18.5659C21.4341 17.1317 23.5853 14.9805 25.0195 14.9805Z" fill="#E093D9"/>
    <path d="M25.6172 14.9804C25.6172 15.4783 25.4342 15.9841 25.1832 16.436C24.9281 16.8952 24.5784 17.3422 24.187 17.7336C23.7956 18.1249 23.3486 18.4746 22.8894 18.7297C22.4376 18.9807 21.932 19.1635 21.4341 19.1635L20.8366 19.1632V18.5659C20.8366 18.0681 21.0193 17.5624 21.2703 17.1106C21.5254 16.6514 21.8751 16.2044 22.2665 15.813C22.6579 15.4217 23.1049 15.072 23.564 14.8169C24.0159 14.5658 24.5218 14.3828 25.0197 14.3828H25.6169L25.6172 14.9804ZM24.1305 15.8693C23.7873 16.062 23.4326 16.3366 23.1114 16.6579C22.7903 16.979 22.516 17.3335 22.3233 17.6764C22.6663 17.4837 23.0207 17.2095 23.3418 16.8884C23.6631 16.5671 23.9378 16.2125 24.1305 15.8693Z" fill="black"/>
    <path d="M25.1333 15.4965L25.0902 15.6173C24.8564 16.2236 24.377 16.8648 23.8477 17.3941C23.3184 17.9234 22.6774 18.4025 22.0711 18.6364L21.9501 18.6798L21.0052 18.9949L21.3201 18.0498C21.5338 17.4088 22.0411 16.7168 22.6057 16.1522C23.1703 15.5876 23.8623 15.0803 24.5033 14.8666L25.4485 14.5517L25.1333 15.4965Z" fill="#E093D9" fill-opacity="0.92"/>
    <path d="M27.0986 20C26.0845 21.0141 23.0423 21.0141 22.0282 20C23.0423 18.9859 26.0845 18.9859 27.0986 20Z" fill="#E093D9"/>
    <path d="M27.5214 20.4226C27.1693 20.7747 26.6822 21.0029 26.1852 21.1449C25.6801 21.2892 25.1168 21.3581 24.5633 21.3581C24.0098 21.3581 23.4464 21.2893 22.9414 21.1449C22.4444 21.0029 21.9576 20.7746 21.6056 20.4226L21.1833 19.9998L21.6056 19.5775C21.9576 19.2255 22.4444 18.9972 22.9414 18.8551C23.4464 18.7108 24.0098 18.642 24.5633 18.642C25.1168 18.642 25.6801 18.7108 26.1852 18.8551C26.6822 18.9972 27.1693 19.2254 27.5214 19.5775L27.9437 19.9998L27.5214 20.4226ZM25.8415 19.9998C25.4627 19.8935 25.0177 19.8369 24.5633 19.8369C24.1092 19.8369 23.6646 19.8936 23.2859 19.9998C23.6646 20.1061 24.1091 20.1628 24.5633 20.1628C25.0177 20.1628 25.4626 20.1062 25.8415 19.9998Z" fill="black"/>
    <path d="M26.8142 20.4454L26.6984 20.5003C26.1043 20.7637 25.312 20.8781 24.5633 20.8781C23.8148 20.8781 23.0228 20.7636 22.4287 20.5003L22.3124 20.4454L21.4215 20.0001L22.3124 19.5545C22.9168 19.2523 23.7648 19.1218 24.5633 19.1217C25.3618 19.1217 26.2098 19.2523 26.8142 19.5545L27.7052 20.0001L26.8142 20.4454Z" fill="#E093D9" fill-opacity="0.92"/>
    <path d="M25.0195 25.0195C23.5854 25.0195 21.4342 22.8683 21.4342 21.4342C22.8683 21.4342 25.0195 23.5854 25.0195 25.0195Z" fill="#E093D9"/>
    <path d="M25.0196 25.6173C24.5217 25.6173 24.0159 25.4343 23.564 25.1832C23.1049 24.9281 22.6578 24.5784 22.2665 24.1871C21.8751 23.7957 21.5254 23.3487 21.2703 22.8895C21.0193 22.4376 20.8365 21.932 20.8365 21.4342L20.8368 20.8366H21.4341C21.932 20.8366 22.4376 21.0193 22.8894 21.2703C23.3486 21.5254 23.7956 21.8752 24.187 22.2665C24.5784 22.6579 24.9281 23.1049 25.1832 23.5641C25.4342 24.016 25.6172 24.5218 25.6172 25.0197V25.617L25.0196 25.6173ZM24.1308 24.1305C23.9381 23.7874 23.6634 23.4327 23.3421 23.1114C23.021 22.7903 22.6666 22.516 22.3236 22.3234C22.5163 22.6664 22.7905 23.0207 23.1116 23.3419C23.433 23.6632 23.7876 23.9378 24.1308 24.1305Z" fill="black"/>
    <path d="M24.5035 25.1333L24.3827 25.0902C23.7764 24.8564 23.1353 24.377 22.6059 23.8477C22.0766 23.3184 21.5975 22.6773 21.3636 22.0711L21.3202 21.9501L21.0051 21.0052L21.9502 21.3201C22.5913 21.5338 23.2832 22.0411 23.8478 22.6057C24.4124 23.1703 24.9198 23.8623 25.1335 24.5033L25.4483 25.4485L24.5035 25.1333Z" fill="#E093D9" fill-opacity="0.92"/>
    <path d="M20 27.0986C18.9859 26.0845 18.9859 23.0423 20 22.0282C21.0141 23.0423 21.0141 26.0845 20 27.0986Z" fill="#E093D9"/>
    <path d="M19.5774 27.5214C19.2254 27.1693 18.9971 26.6822 18.8551 26.1852C18.7108 25.6801 18.642 25.1168 18.642 24.5633C18.642 24.0098 18.7108 23.4464 18.8551 22.9414C18.9971 22.4444 19.2254 21.9576 19.5774 21.6056L20.0002 21.1833L20.4225 21.6056C20.7746 21.9576 21.0029 22.4444 21.1449 22.9414C21.2892 23.4464 21.358 24.0098 21.358 24.5633C21.358 25.1168 21.2892 25.6801 21.1449 26.1852C21.0029 26.6822 20.7746 27.1693 20.4225 27.5214L20.0002 27.9437L19.5774 27.5214ZM20.0002 25.8415C20.1066 25.4627 20.1632 25.0177 20.1632 24.5633C20.1632 24.1092 20.1065 23.6646 20.0002 23.2859C19.8939 23.6646 19.8372 24.1091 19.8372 24.5633C19.8372 25.0177 19.8938 25.4626 20.0002 25.8415Z" fill="black"/>
    <path d="M19.5546 26.8142L19.4997 26.6984C19.2363 26.1043 19.1219 25.312 19.1219 24.5633C19.1219 23.8148 19.2364 23.0228 19.4997 22.4287L19.5546 22.3124L19.9999 21.4215L20.4456 22.3124C20.7478 22.9168 20.8783 23.7648 20.8783 24.5633C20.8783 25.3618 20.7477 26.2098 20.4456 26.8142L19.9999 27.7052L19.5546 26.8142Z" fill="#E093D9" fill-opacity="0.92"/>
    <path d="M14.9806 25.0195C14.9806 23.5854 17.1318 21.4342 18.5659 21.4342C18.5659 22.8683 16.4147 25.0195 14.9806 25.0195Z" fill="#E093D9"/>
    <path d="M14.3828 25.0196C14.3828 24.5217 14.5658 24.0159 14.8168 23.564C15.072 23.1049 15.4216 22.6578 15.813 22.2665C16.2044 21.8751 16.6514 21.5254 17.1106 21.2703C17.5624 21.0193 18.068 20.8365 18.5659 20.8365L19.1635 20.8368V21.4341C19.1635 21.932 18.9807 22.4376 18.7297 22.8894C18.4746 23.3486 18.1249 23.7956 17.7335 24.187C17.3422 24.5784 16.8952 24.9281 16.436 25.1832C15.9841 25.4342 15.4783 25.6172 14.9804 25.6172H14.3831L14.3828 25.0196ZM15.8696 24.1308C16.2127 23.9381 16.5674 23.6634 16.8887 23.3421C17.2098 23.021 17.484 22.6666 17.6767 22.3236C17.3337 22.5163 16.9793 22.7905 16.6582 23.1116C16.3369 23.433 16.0623 23.7876 15.8696 24.1308Z" fill="black"/>
    <path d="M14.8667 24.5035L14.9098 24.3827C15.1437 23.7764 15.623 23.1353 16.1524 22.6059C16.6817 22.0766 17.3227 21.5975 17.9289 21.3636L18.05 21.3202L18.9948 21.0051L18.68 21.9502C18.4663 22.5913 17.9589 23.2832 17.3943 23.8478C16.8297 24.4124 16.1377 24.9198 15.4967 25.1335L14.5516 25.4483L14.8667 24.5035Z" fill="#E093D9" fill-opacity="0.92"/>
    <path d="M12.9014 20C13.9155 18.9859 16.9578 18.9859 17.9718 20C16.9578 21.0141 13.9155 21.0141 12.9014 20Z" fill="#E093D9"/>
    <path d="M12.4786 19.5774C12.8307 19.2254 13.3178 18.9971 13.8148 18.8551C14.3199 18.7108 14.8832 18.642 15.4367 18.642C15.9902 18.642 16.5536 18.7108 17.0587 18.8551C17.5556 18.9971 18.0424 19.2254 18.3944 19.5774L18.8168 20.0002L18.3944 20.4225C18.0424 20.7746 17.5556 21.0029 17.0587 21.1449C16.5536 21.2892 15.9902 21.358 15.4367 21.358C14.8832 21.358 14.3199 21.2892 13.8148 21.1449C13.3178 21.0029 12.8307 20.7746 12.4786 20.4225L12.0563 20.0002L12.4786 19.5774ZM14.1585 20.0002C14.5374 20.1066 14.9824 20.1632 15.4367 20.1632C15.8908 20.1632 16.3354 20.1065 16.7141 20.0002C16.3354 19.8939 15.8909 19.8372 15.4367 19.8372C14.9823 19.8372 14.5374 19.8938 14.1585 20.0002Z" fill="black"/>
    <path d="M13.1858 19.5546L13.3017 19.4997C13.8958 19.2363 14.688 19.1219 15.4367 19.1219C16.1852 19.1219 16.9773 19.2364 17.5713 19.4997L17.6876 19.5546L18.5785 19.9999L17.6876 20.4456C17.0832 20.7478 16.2352 20.8783 15.4367 20.8783C14.6382 20.8783 13.7902 20.7477 13.1858 20.4456L12.2949 19.9999L13.1858 19.5546Z" fill="#E093D9" fill-opacity="0.92"/>
    <path d="M14.9805 14.9805C16.4147 14.9805 18.5659 17.1317 18.5659 18.5659C17.1317 18.5659 14.9805 16.4146 14.9805 14.9805Z" fill="#E093D9"/>
    <path d="M14.9804 14.3827C15.4783 14.3827 15.9841 14.5658 16.436 14.8168C16.8952 15.0719 17.3422 15.4216 17.7336 15.813C18.1249 16.2044 18.4746 16.6514 18.7297 17.1105C18.9807 17.5624 19.1635 18.068 19.1635 18.5658L19.1632 19.1634H18.5659C18.0681 19.1634 17.5624 18.9807 17.1106 18.7297C16.6514 18.4746 16.2044 18.1249 15.813 17.7335C15.4217 17.3421 15.072 16.8951 14.8169 16.4359C14.5658 15.9841 14.3828 15.4782 14.3828 14.9803V14.383L14.9804 14.3827ZM15.8693 15.8695C16.062 16.2127 16.3366 16.5673 16.6579 16.8886C16.979 17.2097 17.3335 17.484 17.6764 17.6766C17.4837 17.3337 17.2095 16.9793 16.8884 16.6582C16.5671 16.3368 16.2125 16.0622 15.8693 15.8695Z" fill="black"/>
    <path d="M15.4965 14.8667L15.6173 14.9098C16.2236 15.1437 16.8648 15.623 17.3941 16.1524C17.9234 16.6817 18.4025 17.3227 18.6364 17.9289L18.6798 18.05L18.9949 18.9948L18.0498 18.68C17.4088 18.4663 16.7168 17.9589 16.1522 17.3943C15.5876 16.8297 15.0803 16.1377 14.8666 15.4967L14.5517 14.5516L15.4965 14.8667Z" fill="#E093D9" fill-opacity="0.92"/>
    <path d="M24.6569 8.75727C25.3887 10.5239 23.8364 14.2715 22.0698 15.0032C21.338 13.2366 22.8903 9.48903 24.6569 8.75727Z" fill="#E093D9"/>
    <path d="M25.3929 8.45245L25.438 8.56844C25.6507 9.15502 25.6753 9.82465 25.6016 10.4666C25.5216 11.1625 25.3188 11.8916 25.0363 12.5734C24.7539 13.2551 24.3819 13.9139 23.9465 14.4624C23.5447 14.9685 23.0537 15.4246 22.4886 15.6889L22.3745 15.7395L21.6386 16.0443L21.3338 15.3084C21.0797 14.6951 21.0466 13.9785 21.1253 13.2938C21.2052 12.5981 21.408 11.8692 21.6903 11.1874C21.9728 10.5056 22.3449 9.84661 22.7804 9.29804C23.2089 8.75824 23.7388 8.2754 24.3521 8.02135L25.0883 7.71611L25.3929 8.45245ZM24.0153 10.3065C23.6911 10.7189 23.3942 11.2377 23.1625 11.7972C22.9307 12.3566 22.7739 12.9332 22.7116 13.454C23.0357 13.0416 23.3325 12.523 23.5642 11.9636C23.796 11.4041 23.953 10.8273 24.0153 10.3065Z" fill="black"/>
    <path d="M25.0607 9.33485L25.0686 9.50561C25.0899 10.3719 24.8273 11.4063 24.4453 12.3286C24.0379 13.3121 23.4443 14.2899 22.7637 14.8802L21.7604 15.7504L21.6662 14.4256C21.6024 13.5269 21.8741 12.4159 22.2815 11.4323C22.6889 10.4486 23.2825 9.47058 23.9632 8.88025L24.9665 8.01006L25.0607 9.33485Z" fill="#E093D9" fill-opacity="0.92"/>
    <path d="M31.2427 15.3431C30.511 17.1097 26.7634 18.662 24.9968 17.9303C25.7285 16.1637 29.4761 14.6114 31.2427 15.3431Z" fill="#E093D9"/>
    <path d="M31.9787 15.648L31.9286 15.7619C31.6642 16.3271 31.2081 16.818 30.702 17.2198C30.1534 17.6553 29.4944 18.0274 28.8126 18.3098C28.1309 18.5922 27.402 18.7949 26.7062 18.8749C26.0643 18.9486 25.3946 18.924 24.8081 18.7113L24.6917 18.6664L23.9557 18.3616L24.2606 17.6256C24.5146 17.0123 24.9979 16.4822 25.5377 16.0537C26.0862 15.6182 26.7449 15.2462 27.4267 14.9638C28.1085 14.6814 28.8376 14.4785 29.5334 14.3986C30.2182 14.3199 30.9343 14.3532 31.5476 14.6072L32.2839 14.9119L31.9787 15.648ZM29.6936 15.9849C29.1727 16.0472 28.5959 16.2042 28.0364 16.4359C27.477 16.6676 26.9584 16.9644 26.5461 17.2886C27.0669 17.2262 27.6434 17.0694 28.2028 16.8377C28.7623 16.6059 29.2812 16.3091 29.6936 15.9849Z" fill="black"/>
    <path d="M31.1198 16.0369L31.0046 16.1633C30.4072 16.7909 29.49 17.3367 28.5678 17.7187C27.5842 18.1261 26.4731 18.3977 25.5744 18.3339L24.2497 18.2397L25.1199 17.2364C25.7102 16.5558 26.6879 15.9623 27.6715 15.5548C28.6551 15.1474 29.7665 14.8756 30.6652 14.9394L31.99 15.0336L31.1198 16.0369Z" fill="#E093D9" fill-opacity="0.92"/>
    <path d="M31.2428 24.6569C29.4761 25.3887 25.7286 23.8364 24.9968 22.0698C26.7634 21.338 30.511 22.8903 31.2428 24.6569Z" fill="#E093D9"/>
    <path d="M31.5476 25.3929L31.4316 25.438C30.845 25.6507 30.1754 25.6753 29.5334 25.6016C28.8376 25.5216 28.1085 25.3188 27.4266 25.0363C26.7449 24.7539 26.0861 24.3819 25.5376 23.9465C25.0316 23.5447 24.5755 23.0537 24.3111 22.4886L24.2605 22.3745L23.9557 21.6386L24.6916 21.3338C25.305 21.0797 26.0215 21.0466 26.7062 21.1253C27.402 21.2052 28.1308 21.408 28.8126 21.6903C29.4944 21.9728 30.1534 22.3449 30.702 22.7804C31.2418 23.2089 31.7246 23.7388 31.9787 24.3521L32.2839 25.0883L31.5476 25.3929ZM29.6936 24.0153C29.2812 23.6911 28.7623 23.3942 28.2028 23.1625C27.6434 22.9307 27.0669 22.7739 26.5461 22.7116C26.9584 23.0357 27.477 23.3325 28.0364 23.5642C28.5959 23.796 29.1727 23.953 29.6936 24.0153Z" fill="black"/>
    <path d="M30.6652 25.0606L30.4944 25.0685C29.6282 25.0898 28.5937 24.8272 27.6715 24.4452C26.6879 24.0378 25.7102 23.4442 25.1198 22.7637L24.2496 21.7603L25.5744 21.6662C26.4731 21.6024 27.5842 21.874 28.5678 22.2814C29.5514 22.6889 30.5295 23.2825 31.1198 23.9631L31.99 24.9665L30.6652 25.0606Z" fill="#E093D9" fill-opacity="0.92"/>
    <path d="M24.6569 31.2427C22.8903 30.511 21.338 26.7634 22.0698 24.9968C23.8364 25.7285 25.3887 29.4761 24.6569 31.2427Z" fill="#E093D9"/>
    <path d="M24.352 31.9787L24.2382 31.9286C23.673 31.6642 23.1821 31.2081 22.7803 30.702C22.3448 30.1534 21.9727 29.4944 21.6902 28.8126C21.4079 28.1309 21.2051 27.402 21.1252 26.7062C21.0514 26.0643 21.0761 25.3946 21.2888 24.8081L21.3337 24.6917L21.6385 23.9557L22.3744 24.2606C22.9878 24.5146 23.5178 24.9979 23.9464 25.5377C24.3818 26.0862 24.7538 26.7449 25.0362 27.4267C25.3187 28.1085 25.5215 28.8376 25.6015 29.5334C25.6802 30.2182 25.6469 30.9343 25.3928 31.5476L25.0882 32.2839L24.352 31.9787ZM24.0152 29.6936C23.9529 29.1727 23.7959 28.5959 23.5641 28.0364C23.3324 27.477 23.0356 26.9584 22.7115 26.5461C22.7738 27.0669 22.9307 27.6434 23.1624 28.2028C23.3941 28.7623 23.691 29.2812 24.0152 29.6936Z" fill="black"/>
    <path d="M23.9631 31.1198L23.8368 31.0047C23.2092 30.4072 22.6634 29.4901 22.2814 28.5678C21.874 27.5842 21.6023 26.4732 21.6661 25.5745L21.7603 24.2497L22.7636 25.1199C23.4442 25.7102 24.0378 26.688 24.4452 27.6715C24.8526 28.6552 25.1245 29.7665 25.0606 30.6653L24.9664 31.99L23.9631 31.1198Z" fill="#E093D9" fill-opacity="0.92"/>
    <path d="M15.3431 31.2428C14.6113 29.4761 16.1636 25.7286 17.9303 24.9968C18.662 26.7634 17.1097 30.511 15.3431 31.2428Z" fill="#E093D9"/>
    <path d="M14.6071 31.5476L14.562 31.4316C14.3493 30.845 14.3247 30.1754 14.3985 29.5334C14.4784 28.8376 14.6813 28.1085 14.9637 27.4266C15.2461 26.7449 15.6181 26.0861 16.0536 25.5376C16.4553 25.0316 16.9463 24.5755 17.5115 24.3111L17.6255 24.2605L18.3614 23.9557L18.6663 24.6916C18.9203 25.305 18.9534 26.0215 18.8748 26.7062C18.7948 27.402 18.5921 28.1308 18.3097 28.8126C18.0273 29.4944 17.6552 30.1534 17.2197 30.702C16.7911 31.2418 16.2612 31.7246 15.6479 31.9787L14.9118 32.2839L14.6071 31.5476ZM15.9847 29.6936C16.309 29.2812 16.6058 28.7623 16.8376 28.2028C17.0693 27.6434 17.2261 27.0669 17.2885 26.5461C16.9643 26.9584 16.6675 27.477 16.4358 28.0364C16.2041 28.5959 16.0471 29.1727 15.9847 29.6936Z" fill="black"/>
    <path d="M14.9394 30.6652L14.9315 30.4944C14.9102 29.6282 15.1728 28.5937 15.5548 27.6715C15.9622 26.6879 16.5557 25.7102 17.2363 25.1198L18.2397 24.2496L18.3338 25.5744C18.3976 26.4731 18.126 27.5842 17.7186 28.5678C17.3111 29.5514 16.7175 30.5295 16.0368 31.1198L15.0335 31.99L14.9394 30.6652Z" fill="#E093D9" fill-opacity="0.92"/>
    <path d="M8.75729 24.6569C9.48905 22.8903 13.2366 21.338 15.0033 22.0698C14.2715 23.8364 10.5239 25.3887 8.75729 24.6569Z" fill="#E093D9"/>
    <path d="M8.02133 24.352L8.07148 24.2382C8.33585 23.673 8.79193 23.1821 9.29803 22.7803C9.84659 22.3448 10.5056 21.9727 11.1874 21.6902C11.8692 21.4079 12.5981 21.2051 13.2938 21.1252C13.9357 21.0514 14.6054 21.0761 15.192 21.2888L15.3084 21.3337L16.0443 21.6385L15.7395 22.3744C15.4854 22.9878 15.0022 23.5178 14.4624 23.9464C13.9139 24.3818 13.2551 24.7538 12.5734 25.0362C11.8915 25.3187 11.1624 25.5215 10.4666 25.6015C9.78188 25.6802 9.06576 25.6469 8.45243 25.3928L7.7161 25.0882L8.02133 24.352ZM10.3065 24.0152C10.8273 23.9529 11.4041 23.7959 11.9636 23.5641C12.523 23.3324 13.0416 23.0356 13.4539 22.7115C12.9332 22.7738 12.3566 22.9307 11.7972 23.1624C11.2377 23.3941 10.7188 23.691 10.3065 24.0152Z" fill="black"/>
    <path d="M8.88024 23.9631L8.99543 23.8368C9.59287 23.2092 10.51 22.6634 11.4323 22.2814C12.4158 21.874 13.5269 21.6023 14.4256 21.6661L15.7504 21.7603L14.8802 22.7636C14.2899 23.4442 13.3121 24.0378 12.3286 24.4452C11.3449 24.8526 10.2336 25.1245 9.33483 25.0606L8.01005 24.9664L8.88024 23.9631Z" fill="#E093D9" fill-opacity="0.92"/>
    <path d="M8.75727 15.3431C10.5239 14.6113 14.2715 16.1636 15.0032 17.9303C13.2366 18.662 9.48903 17.1097 8.75727 15.3431Z" fill="#E093D9"/>
    <path d="M8.45245 14.6071L8.56844 14.562C9.15502 14.3493 9.82465 14.3247 10.4666 14.3985C11.1625 14.4784 11.8916 14.6813 12.5734 14.9637C13.2551 15.2461 13.9139 15.6181 14.4624 16.0536C14.9685 16.4553 15.4246 16.9463 15.6889 17.5115L15.7395 17.6255L16.0443 18.3614L15.3084 18.6663C14.6951 18.9203 13.9785 18.9534 13.2938 18.8748C12.5981 18.7948 11.8692 18.5921 11.1874 18.3097C10.5056 18.0273 9.84661 17.6552 9.29804 17.2197C8.75824 16.7911 8.2754 16.2612 8.02135 15.6479L7.71611 14.9118L8.45245 14.6071ZM10.3065 15.9847C10.7189 16.309 11.2377 16.6058 11.7972 16.8376C12.3566 17.0693 12.9332 17.2261 13.454 17.2885C13.0416 16.9643 12.523 16.6675 11.9636 16.4358C11.4041 16.2041 10.8273 16.0471 10.3065 15.9847Z" fill="black"/>
    <path d="M9.3348 14.9394L9.50557 14.9315C10.3718 14.9102 11.4063 15.1728 12.3285 15.5548C13.3121 15.9622 14.2898 16.5558 14.8802 17.2364L15.7503 18.2397L14.4256 18.3339C13.5269 18.3977 12.4158 18.126 11.4322 17.7186C10.4486 17.3112 9.47053 16.7176 8.8802 16.0369L8.01001 15.0336L9.3348 14.9394Z" fill="#E093D9" fill-opacity="0.92"/>
    <path d="M15.3431 8.75729C17.1097 9.48905 18.662 13.2366 17.9303 15.0033C16.1637 14.2715 14.6114 10.5239 15.3431 8.75729Z" fill="#E093D9"/>
    <path d="M15.648 8.02133L15.7619 8.07148C16.3271 8.33585 16.818 8.79193 17.2198 9.29803C17.6553 9.84659 18.0274 10.5056 18.3098 11.1874C18.5922 11.8692 18.7949 12.5981 18.8749 13.2938C18.9486 13.9357 18.924 14.6054 18.7113 15.192L18.6664 15.3084L18.3616 16.0443L17.6256 15.7395C17.0123 15.4854 16.4822 15.0022 16.0537 14.4624C15.6182 13.9139 15.2462 13.2551 14.9638 12.5734C14.6814 11.8915 14.4785 11.1624 14.3986 10.4666C14.3199 9.78188 14.3532 9.06576 14.6072 8.45243L14.9119 7.7161L15.648 8.02133ZM15.9849 10.3065C16.0472 10.8273 16.2042 11.4041 16.4359 11.9636C16.6676 12.523 16.9644 13.0416 17.2886 13.4539C17.2262 12.9332 17.0694 12.3566 16.8377 11.7972C16.6059 11.2377 16.3091 10.7188 15.9849 10.3065Z" fill="black"/>
    <path d="M16.0369 8.88019L16.1633 8.99538C16.7909 9.59282 17.3367 10.51 17.7187 11.4322C18.1261 12.4158 18.3977 13.5269 18.3339 14.4255L18.2397 15.7503L17.2364 14.8801C16.5558 14.2898 15.9623 13.3121 15.5548 12.3285C15.1474 11.3448 14.8756 10.2335 14.9394 9.33479L15.0336 8.01L16.0369 8.88019Z" fill="#E093D9" fill-opacity="0.92"/>
    <path d="M20 1.40838C21.6901 3.09853 21.6901 8.16897 20 9.85911C18.3098 8.16897 18.3098 3.09853 20 1.40838Z" fill="#E093D9"/>
    <path d="M20.7044 0.704189C21.2911 1.29093 21.6717 2.10215 21.9084 2.93045C22.1489 3.77229 22.2637 4.7114 22.2637 5.63394C22.2637 6.55642 22.1489 7.49523 21.9084 8.33701C21.6717 9.1653 21.2911 9.97651 20.7044 10.5633L19.9998 11.2675L19.2956 10.5633C18.7089 9.97652 18.3284 9.16532 18.0917 8.33701C17.8512 7.49523 17.7364 6.55642 17.7364 5.63394C17.7364 4.7114 17.8512 3.77229 18.0917 2.93045C18.3284 2.10214 18.7089 1.29093 19.2956 0.704189L19.9998 0L20.7044 0.704189ZM19.9998 3.50365C19.8225 4.13513 19.7284 4.87668 19.7284 5.63394C19.7284 6.39096 19.8226 7.13204 19.9998 7.76337C20.177 7.13203 20.2717 6.391 20.2717 5.63394C20.2717 4.87665 20.1771 4.13514 19.9998 3.50365Z" fill="black"/>
    <path d="M20.7421 1.88212L20.8333 2.07578C21.2723 3.06594 21.4636 4.38617 21.4636 5.6339C21.4636 6.96474 21.2458 8.37795 20.7421 9.38525L19.9999 10.8701L19.2577 9.38525C18.754 8.37795 18.5362 6.96474 18.5362 5.6339C18.5362 4.30301 18.754 2.88945 19.2577 1.88212L19.9999 0.397657L20.7421 1.88212Z" fill="#E093D9" fill-opacity="0.92"/>
    <path d="M29.2958 3.8992C29.9144 6.20799 27.3792 10.5991 25.0704 11.2178C24.4518 8.90897 26.987 4.51784 29.2958 3.8992Z" fill="#E093D9"/>
    <path d="M30.258 3.64159C30.4727 4.44306 30.3967 5.33588 30.1875 6.17154C29.9748 7.02086 29.6047 7.89156 29.1434 8.6905C28.6822 9.48938 28.1134 10.245 27.4842 10.8538C26.8651 11.4528 26.1299 11.965 25.3284 12.1798L24.3661 12.4373L24.1084 11.4754C23.8936 10.6739 23.9697 9.78112 24.1789 8.94544C24.3915 8.09619 24.7615 7.22575 25.2227 6.42685C25.684 5.62791 26.2529 4.87202 26.8822 4.26322C27.5013 3.66422 28.2364 3.15196 29.0379 2.93718L29.9999 2.67943L30.258 3.64159ZM28.248 5.71368C27.7788 6.17192 27.3264 6.76702 26.9478 7.42283C26.5693 8.07844 26.2804 8.76737 26.1182 9.40271C26.5873 8.94455 27.0398 8.35014 27.4184 7.69452C27.797 7.03869 28.0858 6.34922 28.248 5.71368Z" fill="black"/>
    <path d="M29.7016 4.68052L29.6838 4.89384C29.5689 5.97082 29.0744 7.20984 28.4506 8.2904C27.7851 9.44294 26.8899 10.5579 25.9501 11.1784L24.5648 12.0933L24.6645 10.4362C24.732 9.31203 25.2499 7.97924 25.9153 6.82669C26.5808 5.6741 27.4762 4.55884 28.4161 3.93829L29.8011 3.02383L29.7016 4.68052Z" fill="#E093D9" fill-opacity="0.92"/>
    <path d="M36.1008 10.7042C35.4822 13.013 31.0911 15.5482 28.7823 14.9295C29.4009 12.6208 33.792 10.0855 36.1008 10.7042Z" fill="#E093D9"/>
    <path d="M37.0629 10.9622C36.8481 11.7636 36.3359 12.4988 35.7369 13.1179C35.1281 13.7471 34.3722 14.3161 33.5732 14.7774C32.7743 15.2386 31.9039 15.6086 31.0546 15.8212C30.219 16.0304 29.3262 16.1064 28.5247 15.8917L27.5625 15.6336L27.8203 14.6716C28.0351 13.8702 28.5473 13.135 29.1463 12.5159C29.7551 11.8867 30.5107 11.3179 31.3096 10.8566C32.1085 10.3954 32.9792 10.0252 33.8286 9.8126C34.6642 9.60342 35.557 9.52736 36.3585 9.74209L37.3204 9.99984L37.0629 10.9622ZM34.2862 11.7517C33.6507 11.9139 32.9614 12.2031 32.3056 12.5817C31.65 12.9602 31.0553 13.4124 30.5972 13.8815C31.2325 13.7193 31.9216 13.4308 32.5773 13.0523C33.2331 12.6736 33.828 12.221 34.2862 11.7517Z" fill="black"/>
    <path d="M36.0617 11.5837L35.9395 11.7596C35.3015 12.6348 34.2538 13.4606 33.1733 14.0845C32.0207 14.7499 30.6879 15.2678 29.5637 15.3353L27.9067 15.435L28.8215 14.0497C29.442 13.1099 30.557 12.2147 31.7095 11.5492C32.8621 10.8838 34.1952 10.3656 35.3194 10.2982L36.9761 10.1987L36.0617 11.5837Z" fill="#E093D9" fill-opacity="0.92"/>
    <path d="M38.5916 20C36.9015 21.6901 31.831 21.6901 30.1409 20C31.831 18.3098 36.9015 18.3098 38.5916 20Z" fill="#E093D9"/>
    <path d="M39.2958 20.7044C38.7091 21.2911 37.8978 21.6717 37.0696 21.9084C36.2277 22.1489 35.2886 22.2637 34.3661 22.2637C33.4436 22.2637 32.5048 22.1489 31.663 21.9084C30.8347 21.6717 30.0235 21.2911 29.4367 20.7044L28.7325 19.9998L29.4367 19.2956C30.0235 18.7089 30.8347 18.3284 31.663 18.0917C32.5048 17.8512 33.4436 17.7364 34.3661 17.7364C35.2886 17.7364 36.2277 17.8512 37.0696 18.0917C37.8979 18.3284 38.7091 18.7089 39.2958 19.2956L40 19.9998L39.2958 20.7044ZM36.4963 19.9998C35.8649 19.8225 35.1233 19.7284 34.3661 19.7284C33.609 19.7284 32.868 19.8226 32.2366 19.9998C32.868 20.177 33.609 20.2717 34.3661 20.2717C35.1234 20.2717 35.8649 20.1771 36.4963 19.9998Z" fill="black"/>
    <path d="M38.1179 20.7421L37.9242 20.8333C36.9341 21.2723 35.6138 21.4636 34.3661 21.4636C33.0353 21.4636 31.622 21.2458 30.6148 20.7421L29.1299 19.9999L30.6148 19.2577C31.622 18.754 33.0353 18.5362 34.3661 18.5362C35.697 18.5362 37.1105 18.754 38.1179 19.2577L39.6023 19.9999L38.1179 20.7421Z" fill="#E093D9" fill-opacity="0.92"/>
    <path d="M36.1008 29.2958C33.792 29.9144 29.4009 27.3792 28.7822 25.0704C31.091 24.4518 35.4822 26.987 36.1008 29.2958Z" fill="#E093D9"/>
    <path d="M36.3584 30.258C35.5569 30.4727 34.6641 30.3967 33.8285 30.1875C32.9791 29.9748 32.1084 29.6047 31.3095 29.1434C30.5106 28.6822 29.755 28.1134 29.1462 27.4842C28.5472 26.8651 28.035 26.1299 27.8202 25.3284L27.5627 24.3661L28.5246 24.1084C29.3261 23.8936 30.2189 23.9697 31.0546 24.1789C31.9038 24.3915 32.7743 24.7615 33.5731 25.2227C34.3721 25.684 35.128 26.2529 35.7368 26.8822C36.3358 27.5013 36.848 28.2364 37.0628 29.0379L37.3206 29.9999L36.3584 30.258ZM34.2863 28.248C33.8281 27.7788 33.233 27.3264 32.5772 26.9478C31.9216 26.5693 31.2326 26.2804 30.5973 26.1182C31.0554 26.5873 31.6499 27.0398 32.3055 27.4184C32.9613 27.797 33.6508 28.0858 34.2863 28.248Z" fill="black"/>
    <path d="M35.3195 29.7016L35.1062 29.6838C34.0292 29.5689 32.7902 29.0744 31.7096 28.4506C30.5571 27.7851 29.4421 26.8899 28.8216 25.9501L27.9067 24.5648L29.5638 24.6645C30.688 24.732 32.0208 25.2499 33.1733 25.9153C34.3259 26.5808 35.4412 27.4762 36.0617 28.4161L36.9762 29.8011L35.3195 29.7016Z" fill="#E093D9" fill-opacity="0.92"/>
    <path d="M29.2958 36.1008C26.987 35.4822 24.4518 31.0911 25.0705 28.7823C27.3792 29.4009 29.9145 33.792 29.2958 36.1008Z" fill="#E093D9"/>
    <path d="M29.0378 37.0629C28.2364 36.8481 27.5012 36.3359 26.8821 35.7369C26.2529 35.1281 25.6839 34.3722 25.2226 33.5732C24.7614 32.7743 24.3914 31.9039 24.1788 31.0546C23.9696 30.219 23.8936 29.3262 24.1083 28.5247L24.3664 27.5625L25.3284 27.8203C26.1298 28.0351 26.865 28.5473 27.4841 29.1463C28.1133 29.7551 28.6821 30.5107 29.1434 31.3096C29.6046 32.1085 29.9748 32.9792 30.1874 33.8286C30.3966 34.6642 30.4726 35.557 30.2579 36.3585L30.0002 37.3204L29.0378 37.0629ZM28.2483 34.2862C28.0861 33.6507 27.7969 32.9614 27.4183 32.3056C27.0398 31.65 26.5876 31.0553 26.1185 30.5972C26.2807 31.2325 26.5692 31.9216 26.9477 32.5773C27.3263 33.2331 27.779 33.828 28.2483 34.2862Z" fill="black"/>
    <path d="M28.4163 36.0616L28.2404 35.9395C27.3652 35.3015 26.5394 34.2538 25.9155 33.1732C25.2501 32.0206 24.7322 30.6879 24.6647 29.5637L24.565 27.9066L25.9503 28.8215C26.8901 29.442 27.7853 30.557 28.4508 31.7095C29.1162 32.8621 29.6344 34.1952 29.7018 35.3194L29.8013 36.9761L28.4163 36.0616Z" fill="#E093D9" fill-opacity="0.92"/>
    <path d="M20 38.5916C18.3099 36.9015 18.3099 31.831 20 30.1409C21.6902 31.831 21.6902 36.9015 20 38.5916Z" fill="#E093D9"/>
    <path d="M19.2956 39.2958C18.7089 38.7091 18.3283 37.8978 18.0916 37.0696C17.8511 36.2277 17.7363 35.2886 17.7363 34.3661C17.7363 33.4436 17.8511 32.5048 18.0916 31.663C18.3283 30.8347 18.7089 30.0235 19.2956 29.4367L20.0002 28.7325L20.7044 29.4367C21.2911 30.0235 21.6716 30.8347 21.9083 31.663C22.1488 32.5048 22.2636 33.4436 22.2636 34.3661C22.2636 35.2886 22.1488 36.2277 21.9083 37.0696C21.6716 37.8979 21.2911 38.7091 20.7044 39.2958L20.0002 40L19.2956 39.2958ZM20.0002 36.4963C20.1775 35.8649 20.2716 35.1233 20.2716 34.3661C20.2716 33.609 20.1774 32.868 20.0002 32.2366C19.823 32.868 19.7283 33.609 19.7283 34.3661C19.7283 35.1234 19.8229 35.8649 20.0002 36.4963Z" fill="black"/>
    <path d="M19.2579 38.1179L19.1667 37.9242C18.7277 36.9341 18.5364 35.6138 18.5364 34.3661C18.5364 33.0353 18.7542 31.622 19.2579 30.6148L20.0001 29.1299L20.7423 30.6148C21.246 31.622 21.4638 33.0353 21.4638 34.3661C21.4638 35.697 21.246 37.1105 20.7423 38.1179L20.0001 39.6023L19.2579 38.1179Z" fill="#E093D9" fill-opacity="0.92"/>
    <path d="M10.7042 36.1008C10.0856 33.792 12.6208 29.4009 14.9296 28.7822C15.5482 31.091 13.013 35.4822 10.7042 36.1008Z" fill="#E093D9"/>
    <path d="M9.74203 36.3584C9.52733 35.5569 9.60336 34.6641 9.81255 33.8285C10.0252 32.9791 10.3953 32.1084 10.8566 31.3095C11.3178 30.5106 11.8866 29.755 12.5158 29.1462C13.1349 28.5472 13.8701 28.035 14.6716 27.8202L15.6339 27.5627L15.8916 28.5246C16.1064 29.3261 16.0303 30.2189 15.8211 31.0546C15.6085 31.9038 15.2385 32.7743 14.7773 33.5731C14.316 34.3721 13.7471 35.128 13.1178 35.7368C12.4987 36.3358 11.7636 36.848 10.9621 37.0628L10.0002 37.3206L9.74203 36.3584ZM11.752 34.2863C12.2213 33.8281 12.6736 33.233 13.0522 32.5772C13.4307 31.9216 13.7196 31.2326 13.8818 30.5973C13.4127 31.0554 12.9602 31.6499 12.5817 32.3055C12.203 32.9613 11.9142 33.6508 11.752 34.2863Z" fill="black"/>
    <path d="M10.2984 35.3195L10.3162 35.1062C10.4311 34.0292 10.9256 32.7902 11.5494 31.7096C12.2149 30.5571 13.1101 29.4421 14.0499 28.8216L15.4352 27.9067L15.3355 29.5638C15.268 30.688 14.7501 32.0208 14.0847 33.1733C13.4192 34.3259 12.5238 35.4412 11.5839 36.0617L10.1989 36.9762L10.2984 35.3195Z" fill="#E093D9" fill-opacity="0.92"/>
    <path d="M3.89917 29.2958C4.51781 26.987 8.90894 24.4518 11.2177 25.0705C10.5991 27.3792 6.20796 29.9145 3.89917 29.2958Z" fill="#E093D9"/>
    <path d="M2.93709 29.0378C3.15189 28.2364 3.66415 27.5012 4.26313 26.8821C4.87193 26.2529 5.62782 25.6839 6.42676 25.2226C7.22566 24.7614 8.0961 24.3914 8.94535 24.1788C9.78101 23.9696 10.6738 23.8936 11.4753 24.1083L12.4375 24.3664L12.1797 25.3284C11.9649 26.1298 11.4527 26.865 10.8537 27.4841C10.2449 28.1133 9.48929 28.6821 8.69041 29.1434C7.89147 29.6046 7.02077 29.9748 6.17145 30.1874C5.33577 30.3966 4.44298 30.4726 3.6415 30.2579L2.67956 30.0002L2.93709 29.0378ZM5.71381 28.2483C6.34933 28.0861 7.03862 27.7969 7.69443 27.4183C8.35002 27.0398 8.94468 26.5876 9.40283 26.1185C8.76747 26.2807 8.07838 26.5692 7.42274 26.9477C6.7669 27.3263 6.17205 27.779 5.71381 28.2483Z" fill="black"/>
    <path d="M3.93835 28.4163L4.06046 28.2404C4.69849 27.3652 5.74618 26.5394 6.82675 25.9155C7.9793 25.2501 9.31208 24.7322 10.4363 24.6647L12.0933 24.565L11.1785 25.9503C10.558 26.8901 9.443 27.7853 8.29046 28.4508C7.13787 29.1162 5.80479 29.6344 4.68058 29.7018L3.02388 29.8013L3.93835 28.4163Z" fill="#E093D9" fill-opacity="0.92"/>
    <path d="M1.40838 20C3.09853 18.3099 8.16897 18.3099 9.85911 20C8.16897 21.6902 3.09853 21.6902 1.40838 20Z" fill="#E093D9"/>
    <path d="M0.704189 19.2956C1.29093 18.7089 2.10215 18.3283 2.93045 18.0916C3.77229 17.8511 4.7114 17.7363 5.63394 17.7363C6.55642 17.7363 7.49523 17.8511 8.33701 18.0916C9.1653 18.3283 9.97651 18.7089 10.5633 19.2956L11.2675 20.0002L10.5633 20.7044C9.97652 21.2911 9.16532 21.6716 8.33701 21.9083C7.49523 22.1488 6.55642 22.2636 5.63394 22.2636C4.7114 22.2636 3.77229 22.1488 2.93045 21.9083C2.10214 21.6716 1.29093 21.2911 0.704189 20.7044L0 20.0002L0.704189 19.2956ZM3.50365 20.0002C4.13513 20.1775 4.87668 20.2716 5.63394 20.2716C6.39096 20.2716 7.13204 20.1774 7.76337 20.0002C7.13203 19.823 6.391 19.7283 5.63394 19.7283C4.87665 19.7283 4.13514 19.8229 3.50365 20.0002Z" fill="black"/>
    <path d="M1.88212 19.2579L2.07578 19.1667C3.06594 18.7277 4.38617 18.5364 5.6339 18.5364C6.96474 18.5364 8.37795 18.7542 9.38525 19.2579L10.8701 20.0001L9.38525 20.7423C8.37795 21.246 6.96474 21.4638 5.6339 21.4638C4.30301 21.4638 2.88945 21.246 1.88212 20.7423L0.397657 20.0001L1.88212 19.2579Z" fill="#E093D9" fill-opacity="0.92"/>
    <path d="M3.8992 10.7042C6.20799 10.0856 10.5991 12.6208 11.2178 14.9296C8.90897 15.5482 4.51784 13.013 3.8992 10.7042Z" fill="#E093D9"/>
    <path d="M3.64159 9.74203C4.44306 9.52733 5.33588 9.60336 6.17154 9.81255C7.02086 10.0252 7.89156 10.3953 8.6905 10.8566C9.48938 11.3178 10.245 11.8866 10.8538 12.5158C11.4528 13.1349 11.965 13.8701 12.1798 14.6716L12.4373 15.6339L11.4754 15.8916C10.6739 16.1064 9.78112 16.0303 8.94544 15.8211C8.09619 15.6085 7.22575 15.2385 6.42685 14.7773C5.62791 14.316 4.87202 13.7471 4.26322 13.1178C3.66422 12.4987 3.15196 11.7636 2.93718 10.9621L2.67943 10.0002L3.64159 9.74203ZM5.71368 11.752C6.17192 12.2213 6.76702 12.6736 7.42283 13.0522C8.07844 13.4307 8.76737 13.7196 9.40271 13.8818C8.94455 13.4127 8.35014 12.9602 7.69452 12.5817C7.03869 12.203 6.34922 11.9142 5.71368 11.752Z" fill="black"/>
    <path d="M4.68052 10.2984L4.89384 10.3162C5.97082 10.4311 7.20984 10.9256 8.2904 11.5494C9.44294 12.2149 10.5579 13.1101 11.1784 14.0499L12.0933 15.4352L10.4362 15.3355C9.31203 15.268 7.97924 14.7501 6.82669 14.0847C5.6741 13.4192 4.55884 12.5238 3.93829 11.5839L3.02383 10.1989L4.68052 10.2984Z" fill="#E093D9" fill-opacity="0.92"/>
    <path d="M10.7042 3.89917C13.013 4.51781 15.5482 8.90894 14.9295 11.2177C12.6208 10.5991 10.0855 6.20796 10.7042 3.89917Z" fill="#E093D9"/>
    <path d="M10.9622 2.93709C11.7636 3.15189 12.4988 3.66415 13.1179 4.26313C13.7471 4.87193 14.3161 5.62782 14.7774 6.42676C15.2386 7.22566 15.6086 8.0961 15.8212 8.94535C16.0304 9.78101 16.1064 10.6738 15.8917 11.4753L15.6336 12.4375L14.6716 12.1797C13.8702 11.9649 13.135 11.4527 12.5159 10.8537C11.8867 10.2449 11.3179 9.48929 10.8566 8.69041C10.3954 7.89147 10.0252 7.02077 9.8126 6.17145C9.60342 5.33577 9.52736 4.44298 9.74209 3.6415L9.99984 2.67956L10.9622 2.93709ZM11.7517 5.71381C11.9139 6.34933 12.2031 7.03862 12.5817 7.69443C12.9602 8.35002 13.4124 8.94468 13.8815 9.40283C13.7193 8.76747 13.4308 8.07838 13.0523 7.42274C12.6736 6.7669 12.221 6.17205 11.7517 5.71381Z" fill="black"/>
    <path d="M11.5837 3.9384L11.7596 4.06051C12.6348 4.69854 13.4606 5.74623 14.0845 6.8268C14.7499 7.97935 15.2678 9.31213 15.3353 10.4363L15.435 12.0934L14.0497 11.1785C13.1099 10.558 12.2147 9.44304 11.5492 8.29051C10.8838 7.13792 10.3656 5.80484 10.2982 4.68063L10.1987 3.02393L11.5837 3.9384Z" fill="#E093D9" fill-opacity="0.92"/>
</svg>
